<svg width="143" height="135" viewBox="0 0 143 135" fill="none" xmlns="http://www.w3.org/2000/svg">
<path d="M1.03944 116.928L17.0535 132.942C17.9619 133.851 19.194 134.361 20.4786 134.361C21.7633 134.361 22.9954 133.851 23.9038 132.942L39.9178 116.928C40.5833 116.263 40.9571 115.36 40.9571 114.419C40.9571 113.478 40.5834 112.576 39.918 111.91C39.2526 111.245 38.3502 110.871 37.4092 110.871C36.4682 110.871 35.5657 111.245 34.9003 111.91L23.9661 122.784C24.4202 77.3487 46.1004 62.0092 59.0807 56.9061C60.0158 56.5386 60.9617 56.2029 61.9186 55.899C60.9148 59.5882 60.1671 63.3425 59.6809 67.1348C58.0889 79.7202 59.9043 90.1436 64.7965 96.4844C72.2328 106.124 82.1218 110.472 92.6368 108.73C98.0072 107.803 103.021 105.421 107.132 101.844C111.287 98.3098 114.42 93.7283 116.206 88.5748C119.641 78.4997 117.034 67.8001 109.052 59.219C101.399 50.9912 89.2573 46.5487 76.5068 46.549C75.2098 46.549 73.9083 46.5955 72.6023 46.6886C74.3635 42.569 76.4577 38.5999 78.8641 34.8207C87.1408 21.8583 105.917 1.22299 138.676 8.64642C139.587 8.84112 140.538 8.66888 141.323 8.16704C142.108 7.6652 142.664 6.87419 142.87 5.96548C143.075 5.05676 142.915 4.10356 142.422 3.3125C141.93 2.52142 141.146 1.95622 140.24 1.7394C135.329 0.603989 130.306 0.0207367 125.265 0.00050354C116.391 -0.0384521 107.632 2.01224 99.698 5.98666C89.2973 11.1838 80.0291 19.8359 72.895 31.0078C69.5172 36.3196 66.7049 41.9705 64.5041 47.8681C61.7727 48.4745 59.0927 49.2926 56.4883 50.315C45.0041 54.8307 35.3701 63.1844 28.6287 74.4742C21.0243 87.2082 17.0758 103.44 16.8814 122.737L6.05589 111.911C5.72641 111.581 5.33528 111.32 4.9048 111.142C4.47432 110.963 4.01295 110.872 3.54701 110.872C3.08107 110.872 2.61971 110.964 2.18924 111.142C1.75877 111.32 1.36765 111.582 1.03818 111.911C0.708725 112.24 0.447388 112.632 0.269089 113.062C0.0908051 113.493 -0.000961304 113.954 -0.000946045 114.42C-0.000930786 114.886 0.0908508 115.347 0.269165 115.778C0.447495 116.208 0.708847 116.599 1.03833 116.929L1.03944 116.928ZM66.7069 68.0233C67.3181 63.3036 68.3617 58.6502 69.8244 54.1215C82.9324 52.3268 96.3517 55.9629 103.867 64.0424C110.107 70.75 112.109 78.6497 109.504 86.289C106.808 94.1931 99.565 100.403 91.48 101.743C90.4081 101.922 89.3234 102.012 88.2368 102.013C81.6071 102.013 75.3696 98.5945 70.4048 92.1587C66.7181 87.3808 65.3707 78.5837 66.7069 68.0238V68.0233Z" fill="white"/>
</svg>
