<svg width="35" height="35" viewBox="0 0 35 35" fill="none" xmlns="http://www.w3.org/2000/svg">
<path d="M32.0833 16.3333H30.9167C30.4525 16.3333 30.0074 16.5177 29.6792 16.8459C29.351 17.1741 29.1667 17.6192 29.1667 18.0833V18.6667H28V15.75C28 15.2859 27.8156 14.8408 27.4874 14.5126C27.1592 14.1844 26.7141 14 26.25 14H24.5C24.3453 14 24.1969 13.9385 24.0875 13.8291C23.9781 13.7198 23.9167 13.5714 23.9167 13.4167V12.25C23.9167 11.7859 23.7323 11.3408 23.4041 11.0126C23.0759 10.6844 22.6308 10.5 22.1667 10.5H19.8333V8.75H22.75C23.2141 8.75 23.6592 8.56563 23.9874 8.23744C24.3156 7.90925 24.5 7.46413 24.5 7C24.5 6.53587 24.3156 6.09075 23.9874 5.76256C23.6592 5.43437 23.2141 5.25 22.75 5.25H11.0833C10.6192 5.25 10.1741 5.43437 9.8459 5.76256C9.51771 6.09075 9.33333 6.53587 9.33333 7C9.33333 7.46413 9.51771 7.90925 9.8459 8.23744C10.1741 8.56563 10.6192 8.75 11.0833 8.75H14V10.5H11.0833C10.6192 10.5 10.1741 10.6844 9.8459 11.0126C9.51771 11.3408 9.33333 11.7859 9.33333 12.25C9.33333 12.4047 9.27187 12.5531 9.16248 12.6625C9.05308 12.7719 8.90471 12.8333 8.75 12.8333H7C6.53587 12.8333 6.09075 13.0177 5.76256 13.3459C5.43437 13.6741 5.25 14.1192 5.25 14.5833V16.9167H3.5V14.5833C3.5 14.1192 3.31563 13.6741 2.98744 13.3459C2.65925 13.0177 2.21413 12.8333 1.75 12.8333C1.28587 12.8333 0.840752 13.0177 0.512563 13.3459C0.184374 13.6741 0 14.1192 0 14.5833L0 23.9167C0 24.3808 0.184374 24.8259 0.512563 25.1541C0.840752 25.4823 1.28587 25.6667 1.75 25.6667C2.21413 25.6667 2.65925 25.4823 2.98744 25.1541C3.31563 24.8259 3.5 24.3808 3.5 23.9167V21.5833H5.25V24.5C5.25 24.9641 5.43437 25.4092 5.76256 25.7374C6.09075 26.0656 6.53587 26.25 7 26.25H9.43367C9.58836 26.25 9.73671 26.3115 9.84608 26.4209L12.6624 29.2373C12.8245 29.4003 13.0173 29.5296 13.2296 29.6177C13.442 29.7057 13.6698 29.7507 13.8997 29.75H26.25C26.7141 29.75 27.1592 29.5656 27.4874 29.2374C27.8156 28.9092 28 28.4641 28 28V25.6667H29.1667V26.25C29.1667 26.7141 29.351 27.1592 29.6792 27.4874C30.0074 27.8156 30.4525 28 30.9167 28H32.0833C32.8566 27.9991 33.5979 27.6915 34.1447 27.1447C34.6915 26.5979 34.9991 25.8566 35 25.0833V19.25C34.9991 18.4767 34.6915 17.7354 34.1447 17.1886C33.5979 16.6418 32.8566 16.3343 32.0833 16.3333ZM10.5 7C10.5 6.84529 10.5615 6.69692 10.6709 6.58752C10.7802 6.47812 10.9286 6.41667 11.0833 6.41667H22.75C22.9047 6.41667 23.0531 6.47812 23.1625 6.58752C23.2719 6.69692 23.3333 6.84529 23.3333 7C23.3333 7.15471 23.2719 7.30308 23.1625 7.41248C23.0531 7.52188 22.9047 7.58333 22.75 7.58333H11.0833C10.9286 7.58333 10.7802 7.52188 10.6709 7.41248C10.5615 7.30308 10.5 7.15471 10.5 7ZM15.1667 8.75H18.6667V10.5H15.1667V8.75ZM2.33333 23.9167C2.33333 24.0714 2.27188 24.2198 2.16248 24.3291C2.05308 24.4385 1.90471 24.5 1.75 24.5C1.59529 24.5 1.44692 24.4385 1.33752 24.3291C1.22812 24.2198 1.16667 24.0714 1.16667 23.9167V14.5833C1.16667 14.4286 1.22812 14.2803 1.33752 14.1709C1.44692 14.0615 1.59529 14 1.75 14C1.90471 14 2.05308 14.0615 2.16248 14.1709C2.27188 14.2803 2.33333 14.4286 2.33333 14.5833V23.9167ZM3.5 20.4167V18.0833H5.25V20.4167H3.5ZM26.8333 28C26.8333 28.1547 26.7719 28.3031 26.6625 28.4125C26.5531 28.5219 26.4047 28.5833 26.25 28.5833H13.8997C13.745 28.5833 13.5966 28.5218 13.4872 28.4124L10.6709 25.5961C10.5088 25.4331 10.316 25.3039 10.1036 25.2159C9.89125 25.1279 9.66355 25.0828 9.43367 25.0833H7C6.84529 25.0833 6.69692 25.0219 6.58752 24.9125C6.47812 24.8031 6.41667 24.6547 6.41667 24.5V14.5833C6.41667 14.4286 6.47812 14.2803 6.58752 14.1709C6.69692 14.0615 6.84529 14 7 14H8.75C9.21413 14 9.65925 13.8156 9.98744 13.4874C10.3156 13.1592 10.5 12.7141 10.5 12.25C10.5 12.0953 10.5615 11.9469 10.6709 11.8375C10.7802 11.7281 10.9286 11.6667 11.0833 11.6667H22.1667C22.3214 11.6667 22.4697 11.7281 22.5791 11.8375C22.6885 11.9469 22.75 12.0953 22.75 12.25V13.4167C22.75 13.8808 22.9344 14.3259 23.2626 14.6541C23.5908 14.9823 24.0359 15.1667 24.5 15.1667H26.25C26.4047 15.1667 26.5531 15.2281 26.6625 15.3375C26.7719 15.4469 26.8333 15.5953 26.8333 15.75V28ZM28 24.5V19.8333H29.1667V24.5H28ZM33.8333 25.0833C33.8333 25.5475 33.649 25.9926 33.3208 26.3208C32.9926 26.649 32.5475 26.8333 32.0833 26.8333H30.9167C30.762 26.8333 30.6136 26.7719 30.5042 26.6625C30.3948 26.5531 30.3333 26.4047 30.3333 26.25V18.0833C30.3333 17.9286 30.3948 17.7803 30.5042 17.6709C30.6136 17.5615 30.762 17.5 30.9167 17.5H32.0833C32.5475 17.5 32.9926 17.6844 33.3208 18.0126C33.649 18.3408 33.8333 18.7859 33.8333 19.25V25.0833Z" fill="white"/>
</svg>
