<svg width="35" height="35" viewBox="0 0 35 35" fill="none" xmlns="http://www.w3.org/2000/svg">
<path d="M24.4944 34.0539H10.5039V25.9519H24.4944V34.0539ZM11.4499 33.108H23.5485V26.8979H11.4499V33.108Z" fill="white"/>
<path d="M24.3624 34.0542H24.003L24.0408 33.1083C28.3969 33.2833 29.0259 29.6792 29.0496 29.5279V29.4758C29.9388 26.165 27.6874 25.4934 27.5928 25.4697C26.1171 24.9968 24.3671 26.742 24.353 26.761L23.6719 26.0988C23.7617 26.0089 25.8286 23.9137 27.8577 24.5616C28.6356 24.8101 29.2942 25.3374 29.707 26.042C30.2698 26.988 30.3597 28.2319 29.9719 29.7029C29.9057 30.1002 29.0307 34.0542 24.3624 34.0542Z" fill="white"/>
<path d="M10.6366 34.0541C5.9684 34.0541 5.0934 30.1 5.01773 29.698C4.62989 28.227 4.71975 26.9973 5.28259 26.0372C5.70386 25.3207 6.3792 24.7889 7.17448 24.5473C9.17989 23.9041 11.2421 26.0041 11.3319 26.0939L10.6508 26.7561C10.6508 26.7561 8.90556 24.9872 7.43462 25.4554C7.31638 25.4885 5.06975 26.1412 5.95421 29.471V29.523C5.97786 29.6743 6.60219 33.2784 10.963 33.1034L11.0008 34.0493L10.6366 34.0541Z" fill="white"/>
<path d="M27.1257 25.0675C27.0642 24.831 25.6359 19.2216 26.019 14.35V14.2932C26.0992 13.8229 26.0858 13.3414 25.9795 12.8763C25.8731 12.4113 25.676 11.9718 25.3994 11.5831C24.7751 10.8405 23.7061 10.4527 22.2305 10.4527H12.771C11.2859 10.4527 10.2169 10.8405 9.58789 11.602C9.31453 11.9921 9.12077 12.4322 9.0177 12.8972C8.91463 13.3623 8.90427 13.8431 8.98721 14.3121V14.3689C9.37032 19.2405 7.94194 24.85 7.88046 25.0864L6.96289 24.85C6.96289 24.7932 8.40546 19.1743 8.046 14.4446C7.94269 13.8428 7.96191 13.2265 8.10251 12.6324C8.24311 12.0383 8.50219 11.4787 8.86424 10.9871C9.68248 9.99387 11.0021 9.48779 12.7852 9.48779H22.2305C24.0136 9.48779 25.3332 9.99387 26.1514 10.9871C26.5143 11.4818 26.7731 12.0449 26.9121 12.6424C27.0511 13.2399 27.0675 13.8594 26.9602 14.4635C26.6007 19.1932 28.0244 24.7932 28.0433 24.8689L27.1257 25.0675Z" fill="white"/>
<path d="M22.7372 26.898H12.2656V9.97974H13.2116V25.952H21.7913V9.97974H22.7372V26.898Z" fill="white"/>
<path d="M12.7363 16.5164H22.262V17.4623H12.7363V16.5164Z" fill="white"/>
<path d="M20.1819 10.4528H14.8184V7.49194H20.1819V10.4528ZM15.7643 9.50681H19.2359V8.43789H15.7643V9.50681Z" fill="white"/>
<path d="M21.1219 8.43772H13.8759C13.6361 8.43779 13.3989 8.38734 13.1799 8.28965C12.9609 8.19196 12.7649 8.04923 12.6047 7.87074C12.4445 7.69226 12.3237 7.48202 12.2502 7.25374C12.1767 7.02546 12.1521 6.78425 12.178 6.54583L12.5847 2.47353C12.6282 2.05292 12.8266 1.66353 13.1413 1.38115C13.456 1.09876 13.8646 0.943586 14.2874 0.945825H20.7104C21.1355 0.943925 21.5458 1.10108 21.8609 1.38639C22.176 1.67171 22.373 2.06456 22.4131 2.48772L22.8199 6.55528C22.8458 6.79371 22.8212 7.03492 22.7476 7.2632C22.6741 7.49148 22.5533 7.70171 22.3931 7.8802C22.2329 8.05869 22.0369 8.20142 21.8179 8.29911C21.5989 8.3968 21.3617 8.44725 21.1219 8.44718V8.43772ZM14.2874 1.89177C14.0979 1.89083 13.9149 1.96059 13.7741 2.08741C13.6332 2.21424 13.5448 2.38901 13.5259 2.57758L13.1192 6.64988C13.1071 6.7562 13.1178 6.86387 13.1504 6.96578C13.183 7.06769 13.2368 7.16153 13.3084 7.2411C13.3801 7.32038 13.4677 7.38367 13.5655 7.42686C13.6632 7.47005 13.769 7.49217 13.8759 7.49177H21.1219C21.2288 7.49217 21.3346 7.47005 21.4324 7.42686C21.5301 7.38367 21.6177 7.32038 21.6894 7.2411C21.761 7.16153 21.8148 7.06769 21.8475 6.96578C21.8801 6.86387 21.8907 6.7562 21.8786 6.64988L21.4719 2.58231C21.4542 2.39289 21.3662 2.21696 21.2252 2.08916C21.0843 1.96136 20.9006 1.89094 20.7104 1.89177H14.2874Z" fill="white"/>
</svg>
