<svg width="48" height="48" viewBox="0 0 48 48" fill="none" xmlns="http://www.w3.org/2000/svg">
<path fill-rule="evenodd" clip-rule="evenodd" d="M10.2594 22.5974C11.0417 22.5974 11.6782 23.2345 11.6782 24.0167C11.6782 24.7988 11.0417 25.4354 10.2594 25.4354C9.47733 25.4354 8.84133 24.7989 8.84133 24.0167C8.84133 23.2344 9.47733 22.5974 10.2594 22.5974ZM19.4056 13.5685C20.1877 13.5685 20.8238 14.2051 20.8238 14.9872C20.8238 15.7694 20.1878 16.4065 19.4056 16.4065C18.6229 16.4065 17.9869 15.7694 17.9869 14.9872C17.9869 14.2051 18.6229 13.5685 19.4056 13.5685ZM28.5625 22.5974C29.3446 22.5974 29.9812 23.2345 29.9812 24.0167C29.9812 24.7988 29.3446 25.4354 28.5625 25.4354C27.7803 25.4354 27.1437 24.7989 27.1437 24.0167C27.1437 23.2344 27.7803 22.5974 28.5625 22.5974ZM37.7075 13.5685C38.4896 13.5685 39.1262 14.2051 39.1262 14.9872C39.1262 15.7694 38.4896 16.4065 37.7075 16.4065C36.9254 16.4065 36.2887 15.7694 36.2887 14.9872C36.2888 14.2051 36.9254 13.5685 37.7075 13.5685ZM10.2594 26.7465C12.3862 26.7465 13.6792 24.4182 12.6053 22.6217L17.9806 17.3143C18.8547 17.8521 19.9573 17.8526 20.8312 17.3137L26.2155 22.6234C25.1441 24.4242 26.4398 26.7465 28.5625 26.7465C30.6828 26.7465 31.9845 24.4272 30.9078 22.6217L36.2825 17.3143C38.0882 18.4237 40.4368 17.1229 40.4368 14.9871C40.4368 13.4823 39.2123 12.2578 37.7075 12.2578C35.5877 12.2578 34.2853 14.5764 35.3622 16.3821L29.9869 21.6894C29.113 21.151 28.0097 21.1518 27.1359 21.69L21.7515 16.3803C22.8252 14.58 21.5282 12.2578 19.4057 12.2578C17.2867 12.2578 15.9838 14.5737 17.0598 16.3821L11.6845 21.6894C9.88312 20.5811 7.53026 21.8777 7.53026 24.0166C7.53016 25.5215 8.75464 26.7465 10.2594 26.7465ZM35.5745 40.0152V21.8656H39.876V40.0152H35.5745ZM26.4239 40.0152V30.2234H30.7248V40.0152L26.4239 40.0152ZM17.2727 40.0152V23.452H21.5748V40.0152H17.2727ZM8.12258 40.0152V32.1756H12.4235V40.0152H8.12258ZM13.7346 37.3323H15.9616V40.0152H13.7346V37.3323ZM22.8858 37.3323H25.1128V40.0152H22.8858V37.3323ZM32.036 37.3323H34.2635V40.0152H32.036V37.3323ZM5.8158 36.0213H6.81141V31.5204C6.81141 31.1585 7.10536 30.8645 7.46671 30.8645H13.0793C13.4407 30.8645 13.7346 31.1585 13.7346 31.5204V36.0213H15.9616V22.7967C15.9616 22.4336 16.2555 22.1408 16.6174 22.1408H22.2301C22.592 22.1408 22.8859 22.4336 22.8859 22.7967V36.0212H25.1129V29.5675C25.1129 29.2056 25.4062 28.9122 25.7681 28.9122H31.3802C31.7433 28.9122 32.0361 29.2056 32.0361 29.5675V36.0212H34.2636V21.2103C34.2636 20.8484 34.5575 20.555 34.9194 20.555H40.5315C40.8934 20.555 41.1874 20.8484 41.1874 21.2103V36.0212H42.1825C43.117 36.0212 43.8776 35.2611 43.8776 34.3261V9.67982C43.8776 8.74584 43.117 7.98466 42.1825 7.98466H5.8158C4.88181 7.98466 4.12015 8.74584 4.12015 9.67982V34.3261C4.12015 35.2611 4.88181 36.0213 5.8158 36.0213ZM44.9762 40.0152H41.1872V37.3323H42.1823C43.8395 37.3323 45.1886 35.9838 45.1886 34.3261V9.67982C45.1886 8.0221 43.8395 6.67358 42.1823 6.67358H5.8158C4.15864 6.67358 2.80956 8.0221 2.80956 9.67982V34.3261C2.80956 35.9838 4.15864 37.3323 5.8158 37.3323H6.81141V40.0152H3.02248C2.66056 40.0152 2.36719 40.3085 2.36719 40.6704C2.36719 41.0329 2.66056 41.3263 3.02248 41.3263H44.9761C45.3375 41.3263 45.6314 41.0329 45.6314 40.6704C45.6315 40.3085 45.3375 40.0152 44.9762 40.0152Z" fill="white"/>
</svg>
