<svg width="45" height="45" viewBox="0 0 45 45" fill="none" xmlns="http://www.w3.org/2000/svg">
<g clip-path="url(#clip0_377_956)">
<path d="M22.3242 0C13.0282 0 5.49219 7.53594 5.49219 16.832C5.49219 19.9409 6.10069 23.1518 7.84691 25.466L22.3242 44.6528L36.8014 25.466C38.3876 23.364 39.1562 19.6479 39.1562 16.832C39.1562 7.53594 31.6202 0 22.3242 0ZM22.3242 9.74871C26.2356 9.74871 29.4075 12.9206 29.4075 16.832C29.4075 20.7434 26.2356 23.9153 22.3242 23.9153C18.4128 23.9153 15.2409 20.7434 15.2409 16.832C15.2409 12.9206 18.4128 9.74871 22.3242 9.74871Z" fill="#D2AC47"/>
</g>
<defs>
<clipPath id="clip0_377_956">
<rect width="44.6528" height="44.6528" fill="white"/>
</clipPath>
</defs>
</svg>
