<svg width="25" height="25" viewBox="0 0 25 25" fill="none" xmlns="http://www.w3.org/2000/svg">
<path d="M8.98984 1.46515V5.86066H7.23164V4.10245H1.95703V19.9263H3.71523V20.8054C3.71523 21.5197 3.97164 22.1332 4.48445 22.646C5.01557 23.1771 5.63827 23.4427 6.35254 23.4427C7.06681 23.4427 7.68035 23.1771 8.19316 22.646C8.72428 22.1332 8.98984 21.5197 8.98984 20.8054V19.9263H23.0555V5.86066H19.5391V1.46515H8.98984ZM10.748 3.22335H17.7809V7.61886H10.748V3.22335ZM3.71523 5.86066H5.47344V18.1681H3.71523V5.86066ZM7.23164 7.61886H8.98984V9.37706H19.5391V7.61886H21.2973V18.1681H7.23164V7.61886ZM9.86895 11.1353V12.8935H11.6271V11.1353H9.86895ZM13.3854 11.1353V12.8935H15.1436V11.1353H13.3854ZM16.9018 11.1353V12.8935H18.66V11.1353H16.9018ZM9.86895 14.6517V16.4099H11.6271V14.6517H9.86895ZM13.3854 14.6517V16.4099H15.1436V14.6517H13.3854ZM16.9018 14.6517V16.4099H18.66V14.6517H16.9018ZM5.47344 19.9263H7.23164V20.8054C7.23164 21.0435 7.14007 21.2541 6.95692 21.4372C6.79209 21.6021 6.59063 21.6845 6.35254 21.6845C6.11445 21.6845 5.90383 21.6021 5.72069 21.4372C5.55585 21.2541 5.47344 21.0435 5.47344 20.8054V19.9263Z" fill="white"/>
</svg>
