<svg width="35" height="35" viewBox="0 0 35 35" fill="none" xmlns="http://www.w3.org/2000/svg">
<path d="M24.3998 10.1653H10.6016C10.3751 10.1653 10.1914 10.349 10.1914 10.5754C10.1914 10.8019 10.3751 10.9856 10.6016 10.9856H24.3998C24.6262 10.9856 24.8099 10.8019 24.8099 10.5754C24.8099 10.349 24.6262 10.1653 24.3998 10.1653Z" fill="white"/>
<path d="M24.3998 14.366H10.6016C10.3751 14.366 10.1914 14.5496 10.1914 14.7761C10.1914 15.0026 10.3751 15.1863 10.6016 15.1863H24.3998C24.6262 15.1863 24.8099 15.0026 24.8099 14.7761C24.8099 14.5496 24.6262 14.366 24.3998 14.366Z" fill="white"/>
<path d="M24.3998 18.5667H10.6016C10.3751 18.5667 10.1914 18.7503 10.1914 18.9768C10.1914 19.2033 10.3751 19.387 10.6016 19.387H24.3998C24.6262 19.387 24.8099 19.2033 24.8099 18.9768C24.8099 18.7503 24.6262 18.5667 24.3998 18.5667Z" fill="white"/>
<path d="M24.3998 22.7673H10.6016C10.3751 22.7673 10.1914 22.951 10.1914 23.1775C10.1914 23.404 10.3751 23.5876 10.6016 23.5876H24.3998C24.6262 23.5876 24.8099 23.404 24.8099 23.1775C24.8099 22.951 24.6262 22.7673 24.3998 22.7673Z" fill="white"/>
<path d="M24.3998 26.968H10.6016C10.3751 26.968 10.1914 27.1517 10.1914 27.3782C10.1914 27.6046 10.3751 27.7883 10.6016 27.7883H24.3998C24.6262 27.7883 24.8099 27.6046 24.8099 27.3782C24.8099 27.1517 24.6262 26.968 24.3998 26.968Z" fill="white"/>
<path d="M27.2266 13.0859C27.4531 13.0859 27.6367 12.9023 27.6367 12.6758C27.6367 12.4493 27.4531 12.2656 27.2266 12.2656C27 12.2656 26.8164 12.4493 26.8164 12.6758C26.8164 12.9023 27 13.0859 27.2266 13.0859Z" fill="white"/>
<path d="M24.119 6.39468H22.1109V2.87109C22.1109 1.43876 20.9456 0.273438 19.5133 0.273438H15.4869C14.0546 0.273438 12.8892 1.43876 12.8892 2.87109V6.39468H10.8812C8.94143 6.39468 7.36328 7.97282 7.36328 9.91259V30.177C7.36328 30.5321 7.41667 30.8748 7.5149 31.1981C7.51859 31.213 7.52311 31.2277 7.52844 31.2419C7.91262 32.4487 8.93131 33.3748 10.1908 33.6265V34.3165C10.1908 34.5429 10.3745 34.7266 10.601 34.7266C10.8275 34.7266 11.0111 34.5429 11.0111 34.3165V33.695H23.989V34.3165C23.989 34.5429 24.1727 34.7266 24.3992 34.7266C24.6257 34.7266 24.8093 34.5429 24.8093 34.3165V33.6265C26.0689 33.3749 27.0876 32.4487 27.4717 31.2419C27.477 31.2277 27.4815 31.2131 27.4853 31.1981C27.5836 30.8748 27.6369 30.532 27.6369 30.177V14.3165C27.6369 14.09 27.4532 13.9063 27.2267 13.9063C27.0003 13.9063 26.8166 14.09 26.8166 14.3165V30.177C26.8166 30.352 26.7993 30.523 26.7673 30.6888H24.1722C23.3429 30.6888 22.6683 31.3634 22.6683 32.1927V32.8746H12.3319V32.1927C12.3319 31.3634 11.6573 30.6888 10.828 30.6888H8.23288C8.20089 30.523 8.18359 30.352 8.18359 30.177V9.91259C8.18359 8.42516 9.39369 7.21499 10.8812 7.21499H24.119C25.6065 7.21499 26.8166 8.42516 26.8166 9.91259V11.0352C26.8166 11.2617 27.0003 11.4453 27.2267 11.4453C27.4532 11.4453 27.6369 11.2617 27.6369 11.0352V9.91259C27.6369 7.97282 26.0588 6.39468 24.119 6.39468ZM23.4885 32.1927C23.4885 31.8158 23.7952 31.5091 24.1721 31.5091H26.4632C25.9985 32.3237 25.1221 32.8746 24.1189 32.8746H23.4884L23.4885 32.1927ZM10.828 31.5091C11.2049 31.5091 11.5116 31.8158 11.5116 32.1927V32.8746H10.8811C9.87795 32.8746 9.00158 32.3237 8.53681 31.5091H10.8279H10.828ZM15.8971 3.55469C15.8971 3.40389 16.0197 3.28125 16.1705 3.28125H18.8297C18.9805 3.28125 19.1031 3.40389 19.1031 3.55469V6.39468H15.8971V3.55469ZM19.9234 3.96484H21.2906V6.39468H19.9234V3.96484ZM15.4869 1.09375H19.5133C20.4933 1.09375 21.2906 1.89109 21.2906 2.87109V3.14453H19.8429C19.6803 2.74422 19.2877 2.46094 18.8297 2.46094H16.1705C15.7125 2.46094 15.32 2.74422 15.1573 3.14453H13.7096V2.87109C13.7096 1.89109 14.5068 1.09375 15.4869 1.09375ZM13.7096 3.96484H15.0767V6.39468H13.7096V3.96484Z" fill="white"/>
</svg>
