<svg width="48" height="48" viewBox="0 0 48 48" fill="none" xmlns="http://www.w3.org/2000/svg">
<path d="M36.3456 27.4426L37.3581 27.9751C38.1156 28.3801 38.9781 28.5376 39.7656 28.4176C41.1756 28.2301 42.6006 27.8551 43.5456 27.5776C44.9181 27.1801 45.7806 25.8151 45.5481 24.4051C45.4581 23.7901 45.3456 23.3251 45.3456 23.3251C45.3306 23.2576 45.3006 23.1901 45.2556 23.1301C45.1281 22.9726 44.8656 22.6351 42.3006 22.9426C40.1331 23.2126 37.7106 24.4201 37.2456 24.6601L35.1831 24.9826C34.7781 25.0201 34.3731 24.9976 33.9156 24.9151C33.6156 24.8626 33.3306 24.8251 33.0456 24.7876C33.0381 24.7876 33.0231 24.7876 33.0156 24.7876C32.2881 24.6901 31.5981 24.6226 30.9531 24.5851C30.9531 24.5851 30.9531 24.5851 30.9456 24.5851C30.1956 24.5476 29.5056 24.5401 28.8831 24.5626C28.8831 24.5626 28.8756 24.5626 28.8681 24.5626C28.8606 24.5626 28.8531 24.5626 28.8456 24.5626C28.0431 24.5926 27.3531 24.6676 26.7981 24.7501C26.2431 24.8326 26.7906 24.7501 26.7831 24.7501C26.4981 24.7951 26.2356 24.8326 26.0256 24.8776C25.1556 25.0501 24.4656 25.7476 24.3156 26.6026C24.1506 27.5476 24.2556 28.3576 24.3756 28.8676C24.5331 29.5876 25.1706 30.1201 25.9281 30.1501C26.8806 30.1876 27.6606 30.2101 28.3281 30.2101C30.3681 30.2101 31.2831 30.0151 32.4531 29.5801C32.7156 29.4826 32.9556 29.3701 33.1881 29.2501C33.2256 29.2351 33.2631 29.2201 33.3006 29.1976C34.2006 28.7326 34.8681 28.1551 35.2881 27.4501H36.3831L36.3456 27.4426ZM35.7381 25.8976L37.4856 25.6276C37.5381 25.6201 37.5906 25.6051 37.6431 25.5751C37.6656 25.5601 40.2531 24.2026 42.4281 23.9326C43.6281 23.7826 44.2056 23.8051 44.4531 23.8276C44.4906 24.0076 44.5356 24.2701 44.5806 24.5626C44.7306 25.4851 44.1681 26.3776 43.2681 26.6401C42.3531 26.9101 40.9806 27.2701 39.6306 27.4501C39.0381 27.5401 38.3931 27.4201 37.8231 27.1126L36.7056 26.5201C36.6381 26.4826 36.5556 26.4601 36.4731 26.4601H35.6631C35.7156 26.2501 35.7381 26.0551 35.7456 25.8976H35.7381ZM30.4431 25.5451V29.0926C30.1206 29.1451 29.7606 29.1751 29.3481 29.1976V25.5301H29.6931C29.9331 25.5301 30.1881 25.5301 30.4506 25.5451H30.4431ZM25.3056 28.6501C25.2081 28.2226 25.1181 27.5551 25.2531 26.7751C25.3356 26.3176 25.7106 25.9426 26.1906 25.8451C26.2206 25.8451 26.2506 25.8376 26.2806 25.8301V29.1826C26.1681 29.1826 26.0556 29.1751 25.9356 29.1676C25.6281 29.1526 25.3656 28.9426 25.3056 28.6576V28.6501ZM27.2631 29.2126V25.6801C27.5856 25.6426 27.9531 25.6051 28.3506 25.5826V29.2351C28.0206 29.2351 27.6606 29.2351 27.2631 29.2201V29.2126ZM32.0706 28.6576C31.8531 28.7401 31.6431 28.8076 31.4256 28.8751V25.6051C31.7781 25.6351 32.1381 25.6651 32.5131 25.7176V28.4626C32.3631 28.5301 32.2281 28.6051 32.0631 28.6651L32.0706 28.6576ZM34.5081 26.7451C34.2981 27.1726 33.9531 27.5551 33.5031 27.8926V25.8601C33.5856 25.8751 33.6606 25.8826 33.7356 25.8976C34.0806 25.9651 34.4106 25.9951 34.7331 26.0026C34.7106 26.2051 34.6431 26.4601 34.5081 26.7451Z" fill="white"/>
<path d="M41.0858 37.0275C42.2483 36.87 43.1708 36 43.3958 34.86C43.5383 34.1175 43.6283 33.2625 43.6658 32.325C43.6733 32.01 43.4933 31.725 43.2008 31.605C42.9158 31.485 42.5933 31.56 42.3833 31.785C41.9933 32.2125 41.6258 32.505 41.3183 32.6475C40.8983 32.8425 38.6408 33.3225 35.4308 33.9C35.1758 33.945 34.9658 34.1175 34.8683 34.365C34.7783 34.605 34.8158 34.875 34.9733 35.0775C35.1008 35.2425 35.3183 35.55 35.6108 36.0675C36.2258 37.155 37.0358 37.35 37.8383 37.35C38.0633 37.35 38.2883 37.335 38.5058 37.32C38.9333 37.29 39.8033 37.1925 41.0933 37.02L41.0858 37.0275ZM36.4658 35.5875C36.3008 35.2875 36.1358 35.0325 35.9858 34.8075C38.3408 34.38 41.1008 33.8325 41.7233 33.5475C42.0158 33.4125 42.3233 33.2025 42.6383 32.9175C42.5933 33.555 42.5183 34.1475 42.4208 34.6725C42.2858 35.4 41.6933 35.9475 40.9508 36.045C39.6983 36.21 38.8283 36.315 38.4158 36.3375C37.4183 36.405 36.9233 36.405 36.4583 35.58L36.4658 35.5875Z" fill="white"/>
<path d="M32.4236 33.51C31.1636 33.165 24.7286 33.1425 24.0011 33.135C23.2736 33.135 16.8386 33.165 15.5786 33.51C14.0861 33.915 13.5236 36 13.5011 36.09C13.4336 36.3375 13.5761 36.5925 13.8161 36.6825C14.4536 36.9075 16.7336 37.425 24.0011 37.425C31.2686 37.425 33.5487 36.9075 34.1862 36.6825C34.4262 36.6 34.5686 36.3375 34.5012 36.09C34.4786 36 33.9161 33.9225 32.4236 33.51ZM24.0011 36.435C18.0986 36.435 15.6011 36.09 14.6186 35.8725C14.8436 35.34 15.2636 34.6125 15.8411 34.455C16.8011 34.1925 22.0586 34.125 24.0086 34.1175C25.9586 34.1175 31.2162 34.1925 32.1762 34.455C32.7612 34.6125 33.1736 35.3325 33.3986 35.8725C32.4086 36.09 29.9186 36.435 24.0161 36.435H24.0011Z" fill="white"/>
<path d="M12.5718 33.915C9.36181 33.3375 7.10431 32.85 6.68431 32.6625C6.37681 32.52 6.00931 32.2275 5.61931 31.8C5.40931 31.575 5.08681 31.5 4.79431 31.62C4.50181 31.74 4.32181 32.025 4.33681 32.34C4.37431 33.27 4.45681 34.125 4.59931 34.875C4.81681 36.015 5.74681 36.8925 6.90181 37.0425C8.19181 37.215 9.06181 37.3125 9.50431 37.3425C9.72181 37.3575 9.93931 37.3725 10.1643 37.3725C10.9593 37.3725 11.7693 37.1775 12.3843 36.09C12.6768 35.5725 12.8943 35.265 13.0218 35.1C13.1793 34.8975 13.2168 34.6275 13.1268 34.3875C13.0368 34.1475 12.8268 33.9675 12.5643 33.9225L12.5718 33.915ZM11.5293 35.595C11.0643 36.4125 10.5693 36.42 9.55681 36.345C9.15931 36.315 8.28931 36.2175 7.03681 36.0525C6.30181 35.955 5.70931 35.4 5.56681 34.68C5.46181 34.1475 5.39431 33.5625 5.34931 32.925C5.67181 33.21 5.97931 33.4275 6.26431 33.5625C6.88681 33.8475 9.64681 34.3875 12.0018 34.8225C11.8518 35.0475 11.6943 35.31 11.5218 35.6025L11.5293 35.595Z" fill="white"/>
<path d="M14.8483 29.2426C15.0808 29.3551 15.3208 29.4751 15.5833 29.5726C16.7533 30.0076 17.6683 30.2026 19.7083 30.2026C20.3683 30.2026 21.1558 30.1801 22.1083 30.1426C22.8658 30.1126 23.5033 29.5801 23.6608 28.8676C23.7808 28.3576 23.8858 27.5476 23.7208 26.5951C23.5708 25.7401 22.8808 25.0501 22.0108 24.8776C21.8008 24.8326 21.5383 24.7951 21.2608 24.7501C21.2533 24.7501 21.2458 24.7501 21.2383 24.7501C20.6833 24.6676 20.0008 24.6001 19.1983 24.5701C19.1833 24.5701 19.1758 24.5701 19.1683 24.5701C19.1683 24.5701 19.1533 24.5701 19.1458 24.5701C18.5308 24.5476 17.8408 24.5551 17.0908 24.5926C17.0908 24.5926 17.0833 24.5926 17.0758 24.5926C17.0758 24.5926 17.0608 24.5926 17.0533 24.5926C16.4158 24.6301 15.7258 24.6901 15.0058 24.7951C14.9908 24.7951 14.9758 24.8026 14.9608 24.8026C14.6758 24.8401 14.3908 24.8776 14.0983 24.9301C13.6483 25.0126 13.2358 25.0426 12.8683 25.0051L10.7758 24.6826C10.3108 24.4426 7.88832 23.2351 5.72082 22.9651C3.15582 22.6501 2.89332 22.9876 2.76582 23.1526C2.72082 23.2126 2.69082 23.2726 2.67582 23.3476C2.67582 23.3476 2.56332 23.8126 2.47332 24.4276C2.24832 25.8376 3.10332 27.2026 4.47582 27.6076C5.42832 27.8926 6.85332 28.2676 8.25582 28.4476C9.05832 28.5676 9.92082 28.4101 10.6708 28.0051L11.6833 27.4651H12.7783C13.1983 28.1701 13.8658 28.7551 14.7658 29.2201C14.8033 29.2426 14.8333 29.2576 14.8708 29.2651L14.8483 29.2426ZM11.5333 26.4526C11.4508 26.4526 11.3758 26.4751 11.3008 26.5126L10.1758 27.1051C9.60582 27.4126 8.96832 27.5326 8.36082 27.4426C7.01832 27.2626 5.64582 26.9026 4.72332 26.6326C3.83082 26.3701 3.26832 25.4776 3.41832 24.5551C3.46332 24.2626 3.50832 24.0076 3.54582 23.8276C3.80082 23.7976 4.37082 23.7826 5.57082 23.9251C7.74582 24.1951 10.3333 25.5601 10.3558 25.5751C10.4008 25.5976 10.4533 25.6201 10.5133 25.6276L12.2608 25.8976C12.2683 26.0551 12.2908 26.2501 12.3433 26.4601H11.5333V26.4526ZM15.4783 28.4401V25.6951C15.8533 25.6501 16.2133 25.6126 16.5658 25.5901V28.8601C16.3558 28.8001 16.1458 28.7251 15.9208 28.6426C15.7558 28.5826 15.6208 28.5076 15.4708 28.4401H15.4783ZM19.6408 29.2126V25.5601C20.0383 25.5826 20.4058 25.6201 20.7283 25.6651V29.1976C20.3308 29.2051 19.9708 29.2126 19.6408 29.2126ZM22.7383 26.7601C22.8733 27.5476 22.7908 28.2151 22.6933 28.6426C22.6333 28.9276 22.3708 29.1376 22.0633 29.1526C21.9433 29.1526 21.8308 29.1601 21.7183 29.1676V25.8226C21.7183 25.8226 21.7783 25.8301 21.8083 25.8376C22.2883 25.9351 22.6633 26.3026 22.7458 26.7601H22.7383ZM18.6508 25.5301V29.1901C18.2383 29.1676 17.8783 29.1376 17.5558 29.0851V25.5376C17.9383 25.5226 18.3058 25.5226 18.6508 25.5226V25.5301ZM13.4833 26.7376C13.3408 26.4526 13.2808 26.1976 13.2508 25.9951C13.5733 25.9951 13.9033 25.9576 14.2408 25.8901C14.3233 25.8751 14.3983 25.8676 14.4808 25.8526V27.8851C14.0308 27.5476 13.6858 27.1651 13.4758 26.7376H13.4833Z" fill="white"/>
<path d="M47.1447 26.3701V26.0926C47.1147 25.2151 47.0922 24.1276 46.3872 22.5226C45.6597 20.8726 42.4647 18.6751 41.7447 18.1951C41.6172 17.9626 41.3097 17.3926 40.8897 16.6426C40.9947 16.5601 41.2047 16.5526 41.3172 16.5601C41.9322 16.5901 42.4872 16.5826 43.4847 16.4701C45.5097 16.2376 45.6522 14.8126 45.6597 14.7151V13.7026C45.6597 13.3801 45.5022 13.0801 45.2472 12.9151C43.9797 12.0751 42.0747 12.1276 41.0472 12.2326C40.6422 12.2776 40.2972 12.5701 40.1997 12.9751L39.9672 13.9426C39.9672 13.9426 39.8547 14.3251 39.6372 14.5051C38.5947 12.7576 37.3647 10.8451 36.3597 9.70506C36.3522 9.69006 36.3372 9.68256 36.3297 9.66756C36.1572 9.47256 35.9847 9.29256 35.8272 9.15006C33.7122 7.22256 25.0497 7.36506 23.9922 7.38756C22.9422 7.35756 14.2722 7.22256 12.1572 9.15006C11.9997 9.29256 11.8347 9.47256 11.6547 9.66756C11.6397 9.68256 11.6322 9.69006 11.6247 9.70506C10.6197 10.8451 9.38971 12.7651 8.34721 14.5051C8.12971 14.3251 8.01721 13.9501 8.01721 13.9501L7.78471 12.9751C7.68721 12.5701 7.34971 12.2701 6.93721 12.2326C5.91721 12.1276 4.01221 12.0826 2.74471 12.9151C2.48221 13.0876 2.33221 13.3801 2.33221 13.7026V14.7601C2.33221 14.8201 2.48221 16.2451 4.50721 16.4776C5.50471 16.5901 6.05971 16.5976 6.67471 16.5676C6.77971 16.5676 6.98971 16.5676 7.10221 16.6576C6.68221 17.4001 6.37471 17.9701 6.24721 18.2026C5.52721 18.6826 2.33221 20.8801 1.60471 22.5301C0.899706 24.1351 0.877206 25.2226 0.854706 26.1001V26.3776C0.832206 26.7601 0.817206 27.1126 0.802206 27.4651C0.712206 29.6401 0.629706 31.5151 1.29721 37.4626C1.32721 38.2276 1.53721 40.6501 2.89471 40.6501H7.32721C7.40221 40.6501 8.04721 40.6126 8.49721 40.0576C8.75221 39.7426 8.87221 39.3376 8.87221 38.8576L9.42721 38.9176C9.53221 38.9251 9.63721 38.9326 9.74221 38.9326C10.2222 38.9326 10.6947 38.8126 11.1222 38.5801L12.6147 37.7701C13.1847 38.2201 15.2097 38.9401 23.9997 38.9401C32.7897 38.9401 34.8072 38.2201 35.3847 37.7701L36.8772 38.5801C37.3947 38.8651 37.9797 38.9776 38.5722 38.9176L39.1272 38.8576C39.1272 39.3376 39.2472 39.7426 39.5022 40.0576C39.9522 40.6126 40.5972 40.6501 40.6872 40.6501H45.1047C46.4547 40.6501 46.6647 38.2726 46.7022 37.4851C47.3697 31.5226 47.2947 29.6476 47.1972 27.4726C47.1822 27.1276 47.1672 26.7676 47.1522 26.3851L47.1447 26.3701ZM40.9272 14.1676L41.1447 13.2001C41.7072 13.1476 43.6197 13.0126 44.6697 13.6951V14.6551C44.6697 14.7226 44.5422 15.3526 43.3647 15.4876C42.4272 15.5926 41.9322 15.6001 41.3547 15.5701C40.9797 15.5551 40.6497 15.6301 40.3947 15.7801C40.3122 15.6376 40.2297 15.4876 40.1397 15.3376C40.5822 15.0451 40.8372 14.5201 40.9272 14.1601V14.1676ZM14.4222 10.3651C14.6022 10.3576 14.7897 10.3501 14.9697 10.3426C15.0972 10.3426 15.2172 10.3351 15.3372 10.3276C15.5472 10.3201 15.7497 10.3126 15.9597 10.3051C16.0722 10.3051 16.1847 10.3051 16.2972 10.2976C16.5147 10.2976 16.7247 10.2826 16.9422 10.2751C17.0472 10.2751 17.1522 10.2751 17.2497 10.2676C17.4747 10.2676 17.6997 10.2526 17.9172 10.2526H18.1647C18.4197 10.2526 18.6672 10.2376 18.9147 10.2376H19.0422C19.3347 10.2376 19.6197 10.2226 19.8897 10.2226H19.8972C20.7672 10.2076 21.5472 10.2001 22.1847 10.1926H22.2147H22.7622H22.8372H23.2122H23.3547H23.5872H23.6697H23.8347H23.9022H23.9772H24.1347H24.2697H24.3972H24.5847H24.7647H25.0947H25.2147H25.7097H25.7772C26.4147 10.1926 27.1947 10.2076 28.0572 10.2226C28.3347 10.2226 28.6272 10.2301 28.9197 10.2376H29.0247C29.2797 10.2376 29.5422 10.2451 29.8047 10.2526H30.0147C30.2547 10.2526 30.4947 10.2676 30.7347 10.2676H30.9972C31.2297 10.2676 31.4697 10.2826 31.7022 10.2901C31.7922 10.2901 31.8822 10.2901 31.9722 10.2976C32.2047 10.3051 32.4447 10.3126 32.6772 10.3201C32.7747 10.3201 32.8647 10.3201 32.9622 10.3276C33.1947 10.3351 33.4197 10.3426 33.6522 10.3576C33.7572 10.3576 33.8547 10.3651 33.9597 10.3726H33.9747C35.0172 11.7901 36.5247 14.2051 37.7472 16.2676C34.5447 16.1176 30.1347 16.0876 27.1797 16.0876C25.2972 16.0876 23.9997 16.1026 23.9697 16.1026C23.8797 16.1026 15.4347 16.0276 10.1997 16.2601C11.3847 14.2576 12.9147 11.7976 13.9647 10.3726C14.1072 10.3726 14.2572 10.3576 14.3997 10.3576L14.4222 10.3651ZM23.9697 8.35506C23.9697 8.35506 23.9847 8.35506 23.9922 8.35506C23.9997 8.35506 24.0072 8.35506 24.0147 8.35506C26.3097 8.30256 32.0322 8.41506 34.4097 9.41256C34.3722 9.41256 34.3347 9.41256 34.2897 9.41256C29.4672 9.18756 24.1647 9.18756 24.0072 9.18756H23.9922C23.9247 9.18756 20.1297 9.18756 16.0347 9.32256C16.0197 9.32256 16.0122 9.32256 15.9972 9.32256C15.6747 9.33006 15.3597 9.34506 15.0372 9.36006C15.0147 9.36006 14.9922 9.36006 14.9697 9.36006C14.6472 9.37506 14.3322 9.38256 14.0097 9.39756C13.9947 9.39756 13.9797 9.39756 13.9647 9.39756C13.8822 9.39756 13.7922 9.39756 13.7097 9.40506C13.6722 9.40506 13.6272 9.40506 13.5897 9.40506C15.9672 8.40756 21.6897 8.29506 23.9772 8.34756L23.9697 8.35506ZM6.62971 15.5776C6.04471 15.6076 5.55721 15.6001 4.61971 15.4951C3.44221 15.3601 3.32221 14.7301 3.31471 14.7151L3.28471 13.7326C4.36471 13.0201 6.27721 13.1476 6.82471 13.2001L7.06471 14.1826C7.15471 14.5351 7.40971 15.0601 7.85221 15.3526C7.76221 15.5026 7.67971 15.6526 7.59721 15.7951C7.34221 15.6451 7.01221 15.5701 6.63721 15.5851L6.62971 15.5776ZM7.73221 39.4276C7.56721 39.6376 7.30471 39.6601 7.31221 39.6601H2.90221C2.73721 39.6601 2.46721 39.0001 2.34721 38.0851L2.48221 38.1226C2.77471 38.1976 3.08221 38.1226 3.31471 37.9351C3.37471 37.8901 3.42721 37.8301 3.47221 37.7776C3.60721 37.6051 3.67471 37.3876 3.65971 37.1551C3.65971 37.1476 3.65971 37.1326 3.65971 37.1251C3.65971 37.0576 3.65221 36.9976 3.64471 36.9226C4.07221 37.5676 4.69471 38.0626 5.42971 38.3476C5.74471 38.4676 6.07471 38.5576 6.41971 38.5951L7.89721 38.7601C7.91221 39.0601 7.85971 39.2926 7.73971 39.4426L7.73221 39.4276ZM38.4447 37.9351C38.0547 37.9801 37.6722 37.8976 37.3272 37.7176L35.4447 36.6901C35.2647 36.5926 35.0397 36.6151 34.8822 36.7501C34.8072 36.8176 34.7547 36.9001 34.7322 36.9976C34.4547 37.1926 32.8197 37.9501 23.9847 37.9501C15.1497 37.9501 13.5072 37.2001 13.2372 36.9976C13.2147 36.9076 13.1622 36.8176 13.0872 36.7501C12.9297 36.6151 12.7047 36.5851 12.5247 36.6901L10.6422 37.7176C10.2972 37.9051 9.91471 37.9801 9.52471 37.9351L8.39971 37.8151C8.39971 37.8151 8.38471 37.8151 8.37721 37.8151L6.50971 37.6126C6.17971 37.5751 5.86471 37.4851 5.57221 37.3501C4.91221 37.0276 4.40221 36.4576 4.14721 35.7601C4.12471 35.7001 4.09471 35.6476 4.07971 35.5876C4.07971 35.5876 4.07971 35.5801 4.07971 35.5726C4.03471 35.4226 4.00471 35.2651 3.98971 35.1001L3.96721 34.9351L3.75721 33.0601C3.75721 33.0151 3.73471 32.9851 3.71971 32.9476C3.71971 32.9326 3.71221 32.9101 3.69721 32.8876C3.68221 32.8576 3.65971 32.8351 3.64471 32.8126C3.62221 32.7901 3.60721 32.7601 3.57721 32.7376C3.56971 32.7376 3.56221 32.7226 3.55471 32.7151C3.53221 32.7001 3.50971 32.6926 3.48721 32.6776C3.47221 32.6701 3.45721 32.6626 3.44221 32.6551C3.40471 32.6401 3.35971 32.6326 3.32221 32.6251C3.30721 32.6251 3.29971 32.6251 3.28471 32.6176C3.28471 32.6176 3.28471 32.6176 3.27721 32.6176C3.27721 32.6176 3.26971 32.6176 3.26221 32.6176C3.23221 32.6176 3.19471 32.6176 3.16471 32.6251C3.14971 32.6251 3.13471 32.6401 3.11971 32.6401C3.10471 32.6401 3.09721 32.6476 3.08221 32.6551C3.04471 32.6701 3.01471 32.6851 2.98471 32.7076C2.96221 32.7226 2.94721 32.7301 2.93221 32.7451C2.90971 32.7601 2.89471 32.7826 2.87971 32.8051C2.86471 32.8276 2.84971 32.8426 2.83471 32.8651C2.81221 32.9026 2.80471 32.9401 2.78971 32.9776C2.78971 32.9926 2.78221 33.0001 2.77471 33.0076C2.65471 33.6226 2.59471 34.4101 2.59471 35.4076C2.59471 36.1501 2.63221 36.8026 2.65471 37.1551H2.61721L2.23471 37.0426C1.61221 31.4176 1.68721 29.6026 1.77721 27.5101C1.79221 27.1576 1.80721 26.7976 1.82221 26.4151V26.1301C1.85221 25.2976 1.86721 24.3601 2.49721 22.9351C3.05221 21.6751 5.84971 19.6426 6.88471 18.9676C6.95221 18.9226 7.01221 18.8626 7.04971 18.7876C7.08721 18.7201 10.2147 12.8776 12.2472 10.4851C12.4047 10.4776 12.5697 10.4701 12.7272 10.4551C11.5572 12.1426 10.0422 14.6101 8.90221 16.5676C8.81221 16.7251 8.81221 16.9201 8.90221 17.0701C8.99221 17.2201 9.16471 17.3026 9.35221 17.3026C14.4222 17.0101 23.8797 17.1001 23.9847 17.1001C24.0822 17.1001 33.5622 17.0101 38.6247 17.3101H38.6547C38.8272 17.3101 38.9847 17.2201 39.0747 17.0776C39.1722 16.9201 39.1722 16.7251 39.0747 16.5751C37.9347 14.6176 36.4122 12.1351 35.2422 10.4551C35.3997 10.4626 35.5647 10.4701 35.7222 10.4851C37.7547 12.8776 40.8822 18.7201 40.9197 18.7876C40.9572 18.8626 41.0172 18.9226 41.0847 18.9676C42.1122 19.6426 44.9172 21.6751 45.4722 22.9351C46.0947 24.3526 46.1172 25.2976 46.1397 26.1301V26.4151C46.1622 26.8051 46.1772 27.1651 46.1922 27.5101C46.2822 29.6026 46.3572 31.4176 45.7422 37.0351L45.3222 37.1476C45.3447 36.8476 45.3672 36.3376 45.3747 35.7301C45.3747 35.6851 45.3747 35.6401 45.3747 35.5951C45.3747 35.5276 45.3747 35.4676 45.3747 35.4001C45.3747 35.3476 45.3747 35.3026 45.3747 35.2576C45.3747 35.1451 45.3747 35.0326 45.3747 34.9201C45.3747 34.8076 45.3747 34.6951 45.3672 34.5901C45.3672 34.5376 45.3672 34.4851 45.3597 34.4326C45.3297 33.8776 45.2847 33.3976 45.2022 33.0001C45.2022 32.9926 45.1947 32.9776 45.1947 32.9701C45.1872 32.9326 45.1722 32.8876 45.1497 32.8576C45.1347 32.8351 45.1197 32.8126 45.1047 32.7901C45.0897 32.7676 45.0747 32.7526 45.0522 32.7301C45.0372 32.7151 45.0147 32.7001 44.9997 32.6926C44.9697 32.6701 44.9397 32.6551 44.9022 32.6401C44.8947 32.6401 44.8797 32.6326 44.8722 32.6251C44.8572 32.6251 44.8347 32.6101 44.8197 32.6026C44.7972 32.6026 44.7822 32.6026 44.7597 32.6026C44.7372 32.6026 44.7222 32.5951 44.7072 32.5951C44.6922 32.5951 44.6772 32.6026 44.6622 32.6026C44.6322 32.6026 44.6022 32.6101 44.5722 32.6251C44.5422 32.6326 44.5122 32.6476 44.4897 32.6626C44.4747 32.6701 44.4522 32.6776 44.4297 32.6851C44.4222 32.6851 44.4147 32.7076 44.4072 32.7151C44.3847 32.7301 44.3697 32.7526 44.3547 32.7751C44.3322 32.8051 44.3097 32.8276 44.2872 32.8576C44.2872 32.8651 44.2872 32.8801 44.2722 32.8951C44.2497 32.9401 44.2347 32.9851 44.2272 33.0301L44.0472 34.6426L43.9947 35.0776C43.9497 35.4751 43.8222 35.8426 43.6347 36.1651C43.3497 36.6676 42.9297 37.0726 42.4122 37.3201C42.1272 37.4626 41.8047 37.5526 41.4747 37.5901L39.6072 37.7926C39.6072 37.7926 39.5922 37.7926 39.5847 37.7926L38.4597 37.9126L38.4447 37.9351ZM45.0822 39.6601H40.6872C40.6872 39.6601 40.4097 39.6451 40.2447 39.4276C40.1247 39.2776 40.0722 39.0451 40.0872 38.7451L41.5647 38.5801C41.9997 38.5351 42.4122 38.4151 42.7872 38.2351C43.4172 37.9426 43.9497 37.4776 44.3322 36.9076C44.3322 36.9901 44.3247 37.0726 44.3172 37.1476C44.3022 37.4476 44.4297 37.7326 44.6622 37.9276C44.8722 38.1001 45.1422 38.1676 45.4122 38.1226C45.4422 38.1226 45.4722 38.1226 45.5022 38.1076L45.6297 38.0701C45.5097 38.9851 45.2397 39.6451 45.0747 39.6451L45.0822 39.6601Z" fill="white"/>
</svg>
