<svg width="48" height="48" viewBox="0 0 48 48" fill="none" xmlns="http://www.w3.org/2000/svg">
<g clip-path="url(#clip0_230_484)">
<path d="M24.4578 2.64252e-09C29.2046 -6.07975e-06 33.8447 1.40756 37.7915 4.04471C41.7383 6.68186 44.8144 10.4301 46.6309 14.8156C48.4474 19.201 48.9227 24.0266 47.9967 28.6821C47.0707 33.3377 44.7849 37.6141 41.4284 40.9705C38.6053 43.793 35.1228 45.8668 31.2962 47.0043C27.4696 48.1418 23.4198 48.307 19.5133 47.4851C15.6068 46.6631 11.9669 44.8799 8.92319 42.2968C5.87946 39.7137 3.52797 36.4124 2.08156 32.6916C2.02494 32.5477 1.9973 32.3941 2.00021 32.2395C2.00312 32.0849 2.03653 31.9324 2.09851 31.7908C2.1605 31.6492 2.24985 31.5212 2.36143 31.4142C2.47302 31.3072 2.60463 31.2233 2.74873 31.1672C2.89283 31.1112 3.04657 31.0842 3.20113 31.0878C3.35569 31.0913 3.50803 31.1254 3.6494 31.188C3.79076 31.2505 3.91838 31.3404 4.02493 31.4525C4.13147 31.5645 4.21484 31.6964 4.27025 31.8408C7.53134 40.2306 15.4555 45.6517 24.4578 45.6517C36.3965 45.6517 46.1095 35.9392 46.1095 24C46.1095 12.0608 36.3965 2.34834 24.4578 2.34834C15.4555 2.34834 7.53134 7.76944 4.27025 16.1592C4.21484 16.3035 4.13147 16.4355 4.02493 16.5475C3.91838 16.6596 3.79076 16.7495 3.6494 16.812C3.50803 16.8746 3.35569 16.9087 3.20113 16.9122C3.04657 16.9158 2.89283 16.8888 2.74873 16.8328C2.60463 16.7767 2.47302 16.6928 2.36143 16.5858C2.24985 16.4788 2.1605 16.3508 2.09851 16.2092C2.03653 16.0676 2.00312 15.9151 2.00021 15.7605C1.9973 15.6059 2.02494 15.4523 2.08156 15.3084C3.83455 10.7993 6.90898 6.92493 10.9019 4.19323C14.8948 1.46153 19.6199 -7.17608e-05 24.4578 2.64252e-09Z" fill="white"/>
<path d="M37.1043 24.0003C37.1048 23.7897 37.0636 23.5811 36.9831 23.3865C36.9025 23.192 36.7842 23.0153 36.6349 22.8668L31.3351 17.5671C31.1143 17.3497 30.8166 17.2283 30.5067 17.2295C30.1968 17.2307 29.9 17.3543 29.6809 17.5734C29.4618 17.7925 29.3382 18.0893 29.337 18.3992C29.3358 18.709 29.4571 19.0068 29.6745 19.2276L33.2731 22.8261H1.17422C0.862797 22.8261 0.564129 22.9498 0.343921 23.17C0.123712 23.3902 0 23.6889 0 24.0003C0 24.3117 0.123712 24.6104 0.343921 24.8306C0.564129 25.0508 0.862797 25.1745 1.17422 25.1745H33.2731L29.6745 28.773C29.4571 28.9938 29.3358 29.2916 29.337 29.6014C29.3382 29.9113 29.4618 30.2081 29.6809 30.4272C29.9 30.6463 30.1968 30.7699 30.5067 30.7711C30.8166 30.7723 31.1143 30.6509 31.3351 30.4335L36.6347 25.1338C36.7841 24.9853 36.9025 24.8087 36.9831 24.6141C37.0637 24.4195 37.1049 24.2109 37.1043 24.0003Z" fill="white"/>
</g>
<defs>
<clipPath id="clip0_230_484">
<rect width="48" height="48" fill="white"/>
</clipPath>
</defs>
</svg>
