<svg width="26" height="26" viewBox="0 0 26 26" fill="none" xmlns="http://www.w3.org/2000/svg">
<path d="M13.8169 0.378784V2.10099C15.5203 2.10099 17.1161 2.53154 18.6044 3.39264C20.0209 4.2358 21.1505 5.36599 21.9932 6.78322C22.8539 8.27221 23.2842 9.86883 23.2842 11.5731H25.0056C25.0056 9.54592 24.4945 7.66226 23.4725 5.92212C22.4863 4.2358 21.1505 2.8993 19.465 1.91262C17.7258 0.890063 15.8431 0.378784 13.8169 0.378784ZM4.91445 2.96209C4.43032 2.96209 4.00896 3.11457 3.65035 3.41955L0.880088 6.24503L0.960775 6.19121C0.512513 6.56795 0.21666 7.03437 0.0732161 7.5905C-0.0522972 8.14663 -0.0164363 8.68482 0.180799 9.20507C0.682853 10.6044 1.35525 12.0395 2.19798 13.5106C3.38139 15.5377 4.78893 17.3586 6.42061 18.9732C9.03846 21.6103 12.2928 23.6913 16.1838 25.2162H16.2107C16.7306 25.3956 17.2506 25.4314 17.7706 25.3238C18.3085 25.2162 18.7837 24.9829 19.1961 24.6241L21.9125 21.9063C22.2712 21.5475 22.4505 21.108 22.4505 20.5877C22.4505 20.0496 22.2712 19.6011 21.9125 19.2423L18.3892 15.6902C18.0306 15.3314 17.5823 15.152 17.0444 15.152C16.5065 15.152 16.0582 15.3314 15.6996 15.6902L14.0052 17.4124C12.6425 16.7666 11.4591 15.9683 10.455 15.0175C9.45086 14.0488 8.65295 12.8737 8.06125 11.4924L9.78257 9.77016C10.1591 9.37549 10.3474 8.90906 10.3474 8.37087C10.3474 7.81475 10.1322 7.36626 9.70189 7.0254L9.78257 7.10613L6.17855 3.41955C5.81994 3.11457 5.39857 2.96209 4.91445 2.96209ZM13.8169 3.82319V5.54539C14.9107 5.54539 15.9148 5.81448 16.8293 6.35267C17.7616 6.89086 18.4968 7.62638 19.0347 8.55924C19.5726 9.47416 19.8416 10.4788 19.8416 11.5731H21.5629C21.5629 10.1738 21.2133 8.87318 20.514 7.67123C19.8147 6.50516 18.8823 5.5723 17.7168 4.87265C16.5155 4.17301 15.2155 3.82319 13.8169 3.82319ZM4.91445 4.68429C4.96824 4.68429 5.031 4.7112 5.10272 4.76502L8.62606 8.37087C8.64399 8.44263 8.62606 8.50542 8.57227 8.55924L6.01717 11.0887L6.20544 11.6269L6.55509 12.3804C6.84197 12.9903 7.17369 13.5823 7.55023 14.1564C8.07021 14.9637 8.64399 15.6544 9.27155 16.2284C10.1143 17.0536 11.1274 17.8071 12.3108 18.4888C12.9025 18.8297 13.4045 19.0808 13.8169 19.2423L14.3548 19.4845L16.9637 16.8742C16.9996 16.8384 17.0265 16.8204 17.0444 16.8204C17.0624 16.8204 17.0892 16.8384 17.1251 16.8742L20.756 20.507C20.7919 20.5429 20.8098 20.5698 20.8098 20.5877C20.8098 20.5877 20.7919 20.6057 20.756 20.6416L18.0665 23.3056C17.672 23.6464 17.2417 23.7361 16.7755 23.5747C13.1176 22.1575 10.0695 20.22 7.63092 17.7623C6.12475 16.2553 4.80686 14.5421 3.67724 12.6226C2.87037 11.2412 2.2428 9.90471 1.79454 8.61306V8.58615C1.72282 8.42469 1.71386 8.23633 1.76765 8.02105C1.82144 7.78784 1.92006 7.60844 2.0635 7.48286L4.72618 4.76502C4.77997 4.7112 4.84273 4.68429 4.91445 4.68429ZM13.8169 7.26759V8.98979C14.5342 8.98979 15.1438 9.24094 15.6458 9.74325C16.1479 10.2456 16.3989 10.8555 16.3989 11.5731H18.1202C18.1202 10.8017 17.923 10.0841 17.5285 9.42034C17.152 8.75658 16.632 8.23633 15.9686 7.8596C15.3052 7.46493 14.5879 7.26759 13.8169 7.26759Z" fill="white"/>
</svg>
