<svg width="48" height="48" viewBox="0 0 48 48" fill="none" xmlns="http://www.w3.org/2000/svg">
<g clip-path="url(#clip0_230_487)">
<path d="M23.9992 48C19.2525 48 14.6123 46.5924 10.6655 43.9553C6.71875 41.3181 3.64261 37.5699 1.8261 33.1844C0.00959015 28.799 -0.465698 23.9734 0.460339 19.3179C1.38638 14.6623 3.67215 10.3859 7.0286 7.02947C9.85178 4.20702 13.3343 2.1332 17.1608 0.995705C20.9874 -0.141785 25.0372 -0.307026 28.9437 0.514946C32.8503 1.33691 36.4901 3.12014 39.5338 5.70321C42.5776 8.28628 44.9291 11.5876 46.3755 15.3084C46.4321 15.4523 46.4597 15.6059 46.4568 15.7605C46.4539 15.9151 46.4205 16.0676 46.3585 16.2092C46.2965 16.3508 46.2072 16.4788 46.0956 16.5858C45.984 16.6928 45.8524 16.7767 45.7083 16.8328C45.5642 16.8888 45.4105 16.9158 45.2559 16.9122C45.1013 16.9087 44.949 16.8746 44.8076 16.812C44.6663 16.7495 44.5386 16.6596 44.4321 16.5475C44.3256 16.4355 44.2422 16.3036 44.1868 16.1592C40.9257 7.76944 33.0016 2.34835 23.9992 2.34835C12.0605 2.34835 2.34757 12.0608 2.34757 24C2.34757 35.9392 12.0605 45.6517 23.9992 45.6517C33.0016 45.6517 40.9257 40.2306 44.1868 31.8408C44.2422 31.6965 44.3256 31.5645 44.4321 31.4525C44.5386 31.3404 44.6663 31.2505 44.8076 31.188C44.949 31.1254 45.1013 31.0913 45.2559 31.0878C45.4105 31.0842 45.5642 31.1112 45.7083 31.1672C45.8524 31.2233 45.984 31.3072 46.0956 31.4142C46.2072 31.5212 46.2965 31.6492 46.3585 31.7908C46.4205 31.9324 46.4539 32.0849 46.4568 32.2395C46.4597 32.3941 46.4321 32.5477 46.3755 32.6916C44.6225 37.2007 41.5481 41.0751 37.5551 43.8068C33.5622 46.5385 28.8372 48.0001 23.9992 48Z" fill="white"/>
<path d="M10.8957 23.9997C10.8952 24.2103 10.9364 24.4189 11.0169 24.6135C11.0975 24.808 11.2158 24.9847 11.3651 25.1332L16.6649 30.4329C16.8857 30.6503 17.1834 30.7717 17.4933 30.7705C17.8032 30.7693 18.1 30.6457 18.3191 30.4266C18.5382 30.2075 18.6618 29.9107 18.663 29.6008C18.6642 29.291 18.5429 28.9932 18.3255 28.7724L14.7269 25.1739H46.8258C47.1372 25.1739 47.4359 25.0502 47.6561 24.83C47.8763 24.6098 48 24.3111 48 23.9997C48 23.6883 47.8763 23.3896 47.6561 23.1694C47.4359 22.9492 47.1372 22.8255 46.8258 22.8255H14.7269L18.3255 19.227C18.5429 19.0062 18.6642 18.7084 18.663 18.3986C18.6618 18.0887 18.5382 17.7919 18.3191 17.5728C18.1 17.3537 17.8032 17.2301 17.4933 17.2289C17.1834 17.2277 16.8857 17.3491 16.6649 17.5665L11.3653 22.8662C11.2159 23.0147 11.0975 23.1913 11.0169 23.3859C10.9363 23.5805 10.8951 23.7891 10.8957 23.9997Z" fill="white"/>
</g>
<defs>
<clipPath id="clip0_230_487">
<rect width="48" height="48" fill="white" transform="matrix(-1 0 0 -1 48 48)"/>
</clipPath>
</defs>
</svg>
