<svg width="48" height="48" viewBox="0 0 48 48" fill="none" xmlns="http://www.w3.org/2000/svg">
<path fill-rule="evenodd" clip-rule="evenodd" d="M30.0675 17.9334C28.8675 16.7335 27.3387 15.9163 25.6744 15.5853C24.01 15.2542 22.2849 15.4242 20.7171 16.0736C19.1493 16.723 17.8093 17.8227 16.8665 19.2337C15.9238 20.6446 15.4206 22.3035 15.4206 24.0004C15.4206 25.6974 15.9238 27.3563 16.8665 28.7672C17.8093 30.1782 19.1493 31.2779 20.7171 31.9273C22.2849 32.5767 24.01 32.7466 25.6744 32.4156C27.3387 32.0846 28.8675 31.2674 30.0675 30.0675C31.6764 28.4583 32.5802 26.276 32.5802 24.0004C32.5802 21.7249 31.6764 19.5426 30.0675 17.9334ZM24 13.5665C26.0637 13.5665 28.0812 14.1785 29.7971 15.3251C31.5131 16.4717 32.8505 18.1014 33.6402 20.0081C34.4299 21.9148 34.6365 24.0128 34.2338 26.0369C33.8311 28.061 32.8372 29.9202 31.3779 31.3795C29.9185 32.8387 28.0592 33.8324 26.0351 34.2349C24.0109 34.6374 21.9129 34.4307 20.0063 33.6408C18.0997 32.8509 16.4701 31.5133 15.3237 29.7973C14.1772 28.0812 13.5654 26.0637 13.5656 24C13.5659 21.2328 14.6653 18.579 16.6221 16.6224C18.5789 14.6657 21.2328 13.5665 24 13.5665ZM14.6044 5.17873C17.7088 4.31684 20.7112 3.12243 23.5594 1.61623C23.6931 1.5438 23.8425 1.50539 23.9946 1.50441C24.1467 1.50343 24.2966 1.5399 24.4312 1.6106C27.2819 3.12025 30.2875 4.31721 33.3956 5.1806C36.5352 6.0478 39.7567 6.58539 43.0078 6.78467C43.1297 6.78405 43.2506 6.80756 43.3634 6.85386C43.4762 6.90015 43.5788 6.96831 43.6651 7.05441C43.7515 7.1405 43.82 7.24284 43.8666 7.35551C43.9132 7.46818 43.9371 7.58897 43.9369 7.71092V19.1962V19.2028C43.8684 26.2584 42.2147 31.9687 38.9437 36.4762C35.6728 40.9837 30.7997 44.264 24.2972 46.4494C24.1068 46.5136 23.9007 46.5136 23.7103 46.4494C17.2078 44.264 12.3375 40.9865 9.06373 36.4762C5.80217 31.9875 4.14936 26.3053 4.0678 19.2909C4.06594 19.2597 4.06594 19.2284 4.0678 19.1972V7.71092C4.06785 7.47512 4.15792 7.24824 4.31962 7.07662C4.48131 6.90499 4.70242 6.80157 4.9378 6.78748C8.20734 6.5904 11.4472 6.05121 14.6044 5.17873ZM24 3.46873C29.6578 6.38717 35.7487 8.06904 42.0834 8.5706V19.1962C42.0169 25.845 40.4784 31.1962 37.4372 35.3897C34.4447 39.5147 29.9747 42.539 23.9962 44.5969C18.0178 42.539 13.5478 39.5128 10.5553 35.3897C7.52811 31.2131 5.99061 25.8825 5.91373 19.2656C5.91373 19.2431 5.91373 19.2197 5.91373 19.1962V8.57248C12.2512 8.07092 18.3422 6.38904 24 3.46873ZM27.3234 20.4375C27.4905 20.258 27.7221 20.1522 27.9671 20.1434C28.2122 20.1346 28.4508 20.2235 28.6303 20.3906C28.8098 20.5577 28.9156 20.7892 28.9244 21.0343C28.9332 21.2794 28.8443 21.518 28.6772 21.6975L23.2144 27.5728C23.1236 27.6712 23.0125 27.7487 22.8888 27.7999C22.7651 27.8512 22.6318 27.8749 22.498 27.8694C22.3642 27.864 22.2333 27.8295 22.1141 27.7684C21.995 27.7073 21.8906 27.6211 21.8081 27.5156L19.3125 24.75C19.2312 24.6601 19.1683 24.5551 19.1276 24.4409C19.0869 24.3268 19.069 24.2057 19.0751 24.0847C19.0811 23.9636 19.111 23.845 19.1629 23.7354C19.2148 23.6259 19.2878 23.5277 19.3776 23.4464C19.5591 23.2822 19.7985 23.1968 20.0429 23.209C20.164 23.215 20.2827 23.2449 20.3922 23.2968C20.5017 23.3487 20.5999 23.4217 20.6812 23.5115L22.5422 25.5675L27.3234 20.4375Z" fill="white"/>
</svg>
