<svg width="364" height="94" viewBox="0 0 364 94" fill="none" xmlns="http://www.w3.org/2000/svg">
<mask id="path-1-inside-1_18_55" fill="white">
<path d="M161.462 0L172.86 15.5498V52.2207L161.672 67.7588H134.735L172.441 93.4502H132.247L64.29 45.1729H150.064V25.7031H36.374L0 0H161.462ZM327.627 25.7031H213.936V45.1729H299.722L231.753 93.4502H191.559L229.265 67.7588H202.328L191.14 52.2207V15.5498L202.538 0H364L327.627 25.7031Z"/>
</mask>
<path d="M161.462 0L172.86 15.5498V52.2207L161.672 67.7588H134.735L172.441 93.4502H132.247L64.29 45.1729H150.064V25.7031H36.374L0 0H161.462ZM327.627 25.7031H213.936V45.1729H299.722L231.753 93.4502H191.559L229.265 67.7588H202.328L191.14 52.2207V15.5498L202.538 0H364L327.627 25.7031Z" fill="url(#paint0_linear_18_55)"/>
<path d="M161.462 0L162.131 -0.490628L161.883 -0.829881H161.462V0ZM172.86 15.5498H173.69V15.2782L173.53 15.0592L172.86 15.5498ZM172.86 52.2207L173.534 52.7056L173.69 52.4884V52.2207H172.86ZM161.672 67.7588V68.5887H162.097L162.345 68.2437L161.672 67.7588ZM134.735 67.7588V66.9289H132.044L134.268 68.4446L134.735 67.7588ZM172.441 93.4502V94.2801H175.133L172.909 92.7644L172.441 93.4502ZM132.247 93.4502L131.766 94.1267L131.982 94.2801H132.247V93.4502ZM64.29 45.1729V44.343H61.6889L63.8094 45.8494L64.29 45.1729ZM150.064 45.1729V46.0027H150.894V45.1729H150.064ZM150.064 25.7031H150.894V24.8732H150.064V25.7031ZM36.374 25.7031L35.8951 26.3809L36.1104 26.533H36.374V25.7031ZM0 0V-0.829881H-2.61245L-0.478918 0.677746L0 0ZM327.627 25.7031V26.533H327.891L328.106 26.3809L327.627 25.7031ZM213.936 25.7031V24.8732H213.106V25.7031H213.936ZM213.936 45.1729H213.106V46.0027H213.936V45.1729ZM299.722 45.1729L300.202 45.8494L302.323 44.343H299.722V45.1729ZM231.753 93.4502V94.2801H232.018L232.233 94.1268L231.753 93.4502ZM191.559 93.4502L191.091 92.7644L188.867 94.2801H191.559V93.4502ZM229.265 67.7588L229.732 68.4446L231.956 66.9289H229.265V67.7588ZM202.328 67.7588L201.655 68.2437L201.903 68.5887H202.328V67.7588ZM191.14 52.2207H190.31V52.4884L190.466 52.7056L191.14 52.2207ZM191.14 15.5498L190.47 15.0592L190.31 15.2782V15.5498H191.14ZM202.538 0V-0.829881H202.117L201.869 -0.490628L202.538 0ZM364 0L364.479 0.67774L366.612 -0.829881H364V0ZM161.462 0L160.793 0.490628L172.191 16.0404L172.86 15.5498L173.53 15.0592L162.131 -0.490628L161.462 0ZM172.86 15.5498H172.03V52.2207H172.86H173.69V15.5498H172.86ZM172.86 52.2207L172.187 51.7358L160.998 67.2739L161.672 67.7588L162.345 68.2437L173.534 52.7056L172.86 52.2207ZM161.672 67.7588V66.9289H134.735V67.7588V68.5887H161.672V67.7588ZM134.735 67.7588L134.268 68.4446L171.974 94.136L172.441 93.4502L172.909 92.7644L135.203 67.073L134.735 67.7588ZM172.441 93.4502V92.6203H132.247V93.4502V94.2801H172.441V93.4502ZM132.247 93.4502L132.728 92.7737L64.7707 44.4963L64.29 45.1729L63.8094 45.8494L131.766 94.1267L132.247 93.4502ZM64.29 45.1729V46.0027H150.064V45.1729V44.343H64.29V45.1729ZM150.064 45.1729H150.894V25.7031H150.064H149.235V45.1729H150.064ZM150.064 25.7031V24.8732H36.374V25.7031V26.533H150.064V25.7031ZM36.374 25.7031L36.8529 25.0254L0.478918 -0.677746L0 0L-0.478918 0.677746L35.8951 26.3809L36.374 25.7031ZM0 0V0.829881H161.462V0V-0.829881H0V0ZM327.627 25.7031V24.8732H213.936V25.7031V26.533H327.627V25.7031ZM213.936 25.7031H213.106V45.1729H213.936H214.765V25.7031H213.936ZM213.936 45.1729V46.0027H299.722V45.1729V44.343H213.936V45.1729ZM299.722 45.1729L299.241 44.4963L231.272 92.7736L231.753 93.4502L232.233 94.1268L300.202 45.8494L299.722 45.1729ZM231.753 93.4502V92.6203H191.559V93.4502V94.2801H231.753V93.4502ZM191.559 93.4502L192.026 94.136L229.732 68.4446L229.265 67.7588L228.797 67.073L191.091 92.7644L191.559 93.4502ZM229.265 67.7588V66.9289H202.328V67.7588V68.5887H229.265V67.7588ZM202.328 67.7588L203.002 67.2739L191.813 51.7358L191.14 52.2207L190.466 52.7056L201.655 68.2437L202.328 67.7588ZM191.14 52.2207H191.97V15.5498H191.14H190.31V52.2207H191.14ZM191.14 15.5498L191.809 16.0404L203.207 0.490628L202.538 0L201.869 -0.490628L190.47 15.0592L191.14 15.5498ZM202.538 0V0.829881H364V0V-0.829881H202.538V0ZM364 0L363.521 -0.67774L327.148 25.0254L327.627 25.7031L328.106 26.3809L364.479 0.67774L364 0Z" fill="#3C3C3C" mask="url(#path-1-inside-1_18_55)"/>
<defs>
<linearGradient id="paint0_linear_18_55" x1="0" y1="46.7251" x2="364" y2="46.7251" gradientUnits="userSpaceOnUse">
<stop stop-color="#AE8625"/>
<stop offset="0.379808" stop-color="#F7EF8A"/>
<stop offset="0.740385" stop-color="#D2AC47"/>
<stop offset="1" stop-color="#EDC967"/>
</linearGradient>
</defs>
</svg>
