<svg width="68" height="68" viewBox="0 0 68 68" fill="none" xmlns="http://www.w3.org/2000/svg">
<path d="M54.8242 40.9063C54.8242 42.1388 53.8255 43.1375 52.593 43.1375C51.3605 43.1375 50.3617 42.1388 50.3617 40.9063C50.3617 39.6738 51.3605 38.6751 52.593 38.6751C53.8255 38.6751 54.8242 39.6738 54.8242 40.9063ZM13.2805 38.6751C12.048 38.6751 11.0492 39.6738 11.0492 40.9063C11.0492 42.1388 12.048 43.1375 13.2805 43.1375C14.513 43.1375 15.5117 42.1388 15.5117 40.9063C15.5117 39.6738 14.513 38.6751 13.2805 38.6751ZM47.3655 34.1594C47.2911 34.4463 47.0361 34.6375 46.7492 34.6375C46.7492 34.6375 46.728 34.6375 46.7173 34.6375C46.4942 34.6375 26.3173 33.7132 22.8005 33.5857L25.9455 36.7307C26.5298 37.315 27.3161 37.7082 28.1342 37.8144L42.5736 39.7376C42.9242 39.7801 43.1686 40.1094 43.1261 40.4494C43.0836 40.7682 42.8073 41.0019 42.4992 41.0019C42.4673 41.0019 42.4461 41.0019 42.4142 41.0019L27.9748 39.0788C26.8698 38.93 25.8392 38.42 25.053 37.6338L19.7405 32.3213C19.6661 32.2469 19.6236 32.1619 19.5917 32.0663C19.5917 32.0344 19.5811 32.0132 19.5705 31.9813C19.5598 31.9069 19.5598 31.8432 19.5705 31.7688C19.5705 31.7475 19.5705 31.7263 19.5705 31.7157C19.5705 31.705 19.5811 31.6944 19.5917 31.6838C19.613 31.5988 19.6555 31.5244 19.7192 31.45C19.7192 31.45 19.7192 31.4288 19.7405 31.4288C19.8148 31.3544 19.8998 31.3119 19.9955 31.28C19.9955 31.28 20.0061 31.2694 20.0167 31.2694C20.3248 31.1844 27.6136 29.1232 34.0098 29.1232C38.7061 29.1232 41.7342 30.6957 45.2511 32.5232C45.8355 32.8207 46.4305 33.1288 47.0467 33.4475C47.3123 33.5857 47.4505 33.8832 47.3761 34.1807L47.3655 34.1594ZM43.8592 33.2351C40.8205 31.6732 38.0367 30.3875 33.9992 30.3875C29.3667 30.3875 24.0861 31.5457 21.6848 32.1407C21.8973 32.2363 22.1098 32.3 22.3117 32.3C23.1617 32.3 37.5267 32.9482 43.8592 33.2351ZM66.5117 40.375V43.5625C66.5117 43.8494 66.3205 44.0938 66.0442 44.1788C63.8767 44.7951 57.6823 45.2413 57.4167 45.2625H55.8017C54.8986 45.9319 53.7936 46.325 52.593 46.325C51.3923 46.325 50.2873 45.9319 49.3842 45.2625H21.2492C19.9848 45.2625 18.423 45.1988 16.723 45.0819C15.788 45.8575 14.5873 46.3144 13.2911 46.3144C11.5698 46.3144 10.0398 45.5069 9.05172 44.2532C6.50172 43.8707 4.7911 43.4669 3.97297 43.0632C2.16672 42.16 2.08172 40.4388 2.4961 39.3232C1.62485 37.4319 1.72047 35.9232 2.13485 34.7969C2.13485 34.7863 2.13485 34.765 2.13485 34.7544C2.38985 34.0638 2.76172 33.5325 3.10172 33.1501C2.71922 32.7888 2.55985 32.2788 2.55985 31.875C2.55985 31.5244 2.84672 31.2375 3.19735 31.2375H9.57235C10.6242 31.2375 12.6642 30.7063 15.2567 30.0369C20.2398 28.7513 27.0611 26.9875 34.0098 26.9875C39.2161 26.9875 48.0667 31.7582 49.108 32.3319C50.1811 32.555 58.8086 34.3294 63.2498 36.2525C63.5367 36.38 63.8023 36.4969 64.0467 36.6244C66.4905 37.8463 66.5223 40.2794 66.5223 40.3857L66.5117 40.375ZM58.6917 36.8369C59.5417 37.5913 60.5086 37.6126 60.5617 37.6126C62.5273 37.6126 63.8767 38.2288 64.7905 38.9619C64.1742 37.9313 63.0267 37.5382 61.943 37.1025C60.7636 36.975 59.563 36.89 58.6917 36.8369ZM3.90922 34.1594C4.6636 34.0001 5.23735 33.7875 5.67297 33.575H4.47235C4.34485 33.6813 4.13235 33.8832 3.90922 34.1594ZM13.2805 45.0501C14.3111 45.0501 15.2461 44.6782 15.9686 44.0619C15.9686 44.0513 15.9686 44.0407 15.9898 44.0407C16.8717 43.2225 17.4242 42.1069 17.4242 40.9063C17.4242 39.0788 16.2342 37.5488 14.5873 36.9963C14.173 36.8582 13.7373 36.7625 13.2805 36.7625C12.7067 36.7625 12.1648 36.8794 11.6655 37.0919C10.178 37.7188 9.13672 39.1957 9.13672 40.9063C9.14735 41.7775 9.41297 42.6169 9.9336 43.3288C10.6773 44.37 11.8992 45.0501 13.2805 45.0501ZM52.593 45.0501C53.5173 45.0501 54.3673 44.7419 55.058 44.2319C55.0686 44.2319 55.0686 44.2213 55.0686 44.2213C56.0886 43.4138 56.7367 42.2132 56.7367 40.9063C56.7367 39.0788 55.5467 37.5488 53.8998 36.9963C53.4855 36.8582 53.0498 36.7625 52.593 36.7625C52.0192 36.7625 51.4773 36.8794 50.978 37.0919C49.4905 37.7188 48.4492 39.1957 48.4492 40.9063C48.4492 42.2132 49.0973 43.4138 50.1173 44.2213C50.1173 44.2213 50.1173 44.2319 50.128 44.2319C50.8186 44.7419 51.6686 45.0501 52.593 45.0501ZM65.2367 43.0632V41.5544C65.0455 41.0975 63.9617 38.8875 60.5617 38.8875C60.4555 38.8875 58.033 38.8557 56.8005 36.4119C56.6942 36.21 56.7155 35.9657 56.8323 35.785C56.8961 35.6788 56.9917 35.6044 57.1086 35.5619C52.9967 34.4251 48.8105 33.5857 48.7467 33.575C48.683 33.5644 48.6192 33.5432 48.5661 33.5113C48.4705 33.4582 39.0886 28.2838 33.9992 28.2838C27.2205 28.2838 20.4842 30.0263 15.5755 31.2907C12.7917 32.0132 10.773 32.5338 9.56172 32.5338H7.88297C7.88297 32.5338 7.95735 32.5869 7.9786 32.6294C8.09547 32.8207 8.1061 33.0544 8.01047 33.2457C7.91485 33.4369 6.9586 35.0944 3.22922 35.5832C3.0061 36.4544 3.0486 37.6125 3.7711 39.0469C3.8561 39.2275 3.8561 39.4401 3.7711 39.6207C3.6436 39.8757 3.0911 41.225 4.54672 41.9475C5.10985 42.2344 6.42735 42.5532 8.2336 42.8613C7.84047 41.8413 7.75547 40.6938 8.04235 39.6525C8.6161 37.2832 10.7411 35.5088 13.2911 35.5088C15.8411 35.5088 17.9661 37.2832 18.5398 39.6525C18.933 41.0869 18.6036 42.6594 17.8173 43.9025C19.0923 43.9769 20.2717 44.0088 21.2492 44.0088H48.1411C47.7055 43.3607 47.3973 42.6169 47.2592 41.8519C47.1211 41.1294 47.1636 40.3538 47.3442 39.6525C47.918 37.2832 50.043 35.5088 52.593 35.5088C55.143 35.5088 57.268 37.2832 57.8417 39.6525C58.0223 40.3538 58.0648 41.1294 57.9267 41.8519C57.7886 42.6169 57.4805 43.3607 57.0448 44.0088H57.3742C57.3742 44.0088 62.8461 43.605 65.2367 43.0844V43.0632Z" fill="white"/>
</svg>
