<svg width="35" height="25" viewBox="0 0 35 25" fill="none" xmlns="http://www.w3.org/2000/svg">
<path d="M32.0833 11.0833H30.9167C30.4525 11.0833 30.0074 11.2677 29.6792 11.5959C29.351 11.9241 29.1667 12.3692 29.1667 12.8333V13.4167H28V10.5C28 10.0359 27.8156 9.59075 27.4874 9.26256C27.1592 8.93437 26.7141 8.75 26.25 8.75H24.5C24.3453 8.75 24.1969 8.68854 24.0875 8.57915C23.9781 8.46975 23.9167 8.32138 23.9167 8.16667V7C23.9167 6.53587 23.7323 6.09075 23.4041 5.76256C23.0759 5.43437 22.6308 5.25 22.1667 5.25H19.8333V3.5H22.75C23.2141 3.5 23.6592 3.31563 23.9874 2.98744C24.3156 2.65925 24.5 2.21413 24.5 1.75C24.5 1.28587 24.3156 0.840752 23.9874 0.512563C23.6592 0.184374 23.2141 0 22.75 0H11.0833C10.6192 0 10.1741 0.184374 9.8459 0.512563C9.51771 0.840752 9.33333 1.28587 9.33333 1.75C9.33333 2.21413 9.51771 2.65925 9.8459 2.98744C10.1741 3.31563 10.6192 3.5 11.0833 3.5H14V5.25H11.0833C10.6192 5.25 10.1741 5.43437 9.8459 5.76256C9.51771 6.09075 9.33333 6.53587 9.33333 7C9.33333 7.15471 9.27187 7.30308 9.16248 7.41248C9.05308 7.52188 8.90471 7.58333 8.75 7.58333H7C6.53587 7.58333 6.09075 7.76771 5.76256 8.0959C5.43437 8.42409 5.25 8.86921 5.25 9.33333V11.6667H3.5V9.33333C3.5 8.86921 3.31563 8.42409 2.98744 8.0959C2.65925 7.76771 2.21413 7.58333 1.75 7.58333C1.28587 7.58333 0.840752 7.76771 0.512563 8.0959C0.184374 8.42409 0 8.86921 0 9.33333L0 18.6667C0 19.1308 0.184374 19.5759 0.512563 19.9041C0.840752 20.2323 1.28587 20.4167 1.75 20.4167C2.21413 20.4167 2.65925 20.2323 2.98744 19.9041C3.31563 19.5759 3.5 19.1308 3.5 18.6667V16.3333H5.25V19.25C5.25 19.7141 5.43437 20.1592 5.76256 20.4874C6.09075 20.8156 6.53587 21 7 21H9.43367C9.58836 21 9.73671 21.0615 9.84608 21.1709L12.6624 23.9873C12.8245 24.1503 13.0173 24.2796 13.2296 24.3677C13.442 24.4557 13.6698 24.5007 13.8997 24.5H26.25C26.7141 24.5 27.1592 24.3156 27.4874 23.9874C27.8156 23.6592 28 23.2141 28 22.75V20.4167H29.1667V21C29.1667 21.4641 29.351 21.9092 29.6792 22.2374C30.0074 22.5656 30.4525 22.75 30.9167 22.75H32.0833C32.8566 22.7491 33.5979 22.4415 34.1447 21.8947C34.6915 21.3479 34.9991 20.6066 35 19.8333V14C34.9991 13.2267 34.6915 12.4854 34.1447 11.9386C33.5979 11.3918 32.8566 11.0843 32.0833 11.0833ZM10.5 1.75C10.5 1.59529 10.5615 1.44692 10.6709 1.33752C10.7802 1.22812 10.9286 1.16667 11.0833 1.16667H22.75C22.9047 1.16667 23.0531 1.22812 23.1625 1.33752C23.2719 1.44692 23.3333 1.59529 23.3333 1.75C23.3333 1.90471 23.2719 2.05308 23.1625 2.16248C23.0531 2.27188 22.9047 2.33333 22.75 2.33333H11.0833C10.9286 2.33333 10.7802 2.27188 10.6709 2.16248C10.5615 2.05308 10.5 1.90471 10.5 1.75ZM15.1667 3.5H18.6667V5.25H15.1667V3.5ZM2.33333 18.6667C2.33333 18.8214 2.27188 18.9698 2.16248 19.0791C2.05308 19.1885 1.90471 19.25 1.75 19.25C1.59529 19.25 1.44692 19.1885 1.33752 19.0791C1.22812 18.9698 1.16667 18.8214 1.16667 18.6667V9.33333C1.16667 9.17862 1.22812 9.03025 1.33752 8.92085C1.44692 8.81146 1.59529 8.75 1.75 8.75C1.90471 8.75 2.05308 8.81146 2.16248 8.92085C2.27188 9.03025 2.33333 9.17862 2.33333 9.33333V18.6667ZM3.5 15.1667V12.8333H5.25V15.1667H3.5ZM26.8333 22.75C26.8333 22.9047 26.7719 23.0531 26.6625 23.1625C26.5531 23.2719 26.4047 23.3333 26.25 23.3333H13.8997C13.745 23.3333 13.5966 23.2718 13.4872 23.1624L10.6709 20.3461C10.5088 20.1831 10.316 20.0539 10.1036 19.9659C9.89125 19.8779 9.66355 19.8328 9.43367 19.8333H7C6.84529 19.8333 6.69692 19.7719 6.58752 19.6625C6.47812 19.5531 6.41667 19.4047 6.41667 19.25V9.33333C6.41667 9.17862 6.47812 9.03025 6.58752 8.92085C6.69692 8.81146 6.84529 8.75 7 8.75H8.75C9.21413 8.75 9.65925 8.56563 9.98744 8.23744C10.3156 7.90925 10.5 7.46413 10.5 7C10.5 6.84529 10.5615 6.69692 10.6709 6.58752C10.7802 6.47812 10.9286 6.41667 11.0833 6.41667H22.1667C22.3214 6.41667 22.4697 6.47812 22.5791 6.58752C22.6885 6.69692 22.75 6.84529 22.75 7V8.16667C22.75 8.6308 22.9344 9.07592 23.2626 9.4041C23.5908 9.73229 24.0359 9.91667 24.5 9.91667H26.25C26.4047 9.91667 26.5531 9.97812 26.6625 10.0875C26.7719 10.1969 26.8333 10.3453 26.8333 10.5V22.75ZM28 19.25V14.5833H29.1667V19.25H28ZM33.8333 19.8333C33.8333 20.2975 33.649 20.7426 33.3208 21.0708C32.9926 21.399 32.5475 21.5833 32.0833 21.5833H30.9167C30.762 21.5833 30.6136 21.5219 30.5042 21.4125C30.3948 21.3031 30.3333 21.1547 30.3333 21V12.8333C30.3333 12.6786 30.3948 12.5303 30.5042 12.4209C30.6136 12.3115 30.762 12.25 30.9167 12.25H32.0833C32.5475 12.25 32.9926 12.4344 33.3208 12.7626C33.649 13.0908 33.8333 13.5359 33.8333 14V19.8333Z" fill="white"/>
</svg>
