<svg width="145" height="68" viewBox="0 0 145 68" fill="none" xmlns="http://www.w3.org/2000/svg">
<path d="M70.1655 11.9766V3.5662L67.8302 0H34.748L42.2007 5.89484H65.4949V10.3602H47.9204L61.8442 21.4326H70.0797L62.3541 15.5403H67.873L70.1655 11.9766Z" fill="white"/>
<path d="M73.9121 11.9766V3.5662L76.2474 0H109.33L101.877 5.89484H78.5827V10.3602H96.1594L82.2334 21.4326H73.9978L81.7235 15.5403H76.2045L73.9121 11.9766Z" fill="#C4AC8B"/>
<path d="M0 39.6197H4.29829C5.49413 39.6197 6.41922 39.996 7.03746 40.6855C7.56092 41.2715 7.84296 42.0973 7.84296 43.0899V43.1202C7.84296 44.8175 7.02392 45.8858 5.82807 46.3808L8.125 50.139H5.70848L3.69359 46.7723H2.06904V50.139H0V39.6172V39.6197ZM4.16291 44.7316C5.16922 44.7316 5.74684 44.1305 5.74684 43.244V43.2137C5.74684 42.2211 5.12861 41.7109 4.12229 41.7109H2.06904V44.7316H4.16291Z" fill="white"/>
<path d="M20.3281 39.6197H27.4175V41.6781H22.3814V43.8148H26.8128V45.8732H22.3814V48.0831H27.4852V50.144H20.3281V39.6222V39.6197Z" fill="white"/>
<path d="M39.9456 39.6197H41.8522L46.2565 46.098V39.6197H48.2985V50.1415H46.5386L41.9853 43.4536V50.1415H39.9434V39.6197H39.9456Z" fill="white"/>
<path d="M63.363 41.7539H60.502V39.6197H68.2908V41.7539H65.4298V50.1415H63.3607V41.7539H63.363Z" fill="white"/>
<path d="M80.4941 39.6197H84.7924C85.9883 39.6197 86.9134 39.996 87.5316 40.6855C88.0551 41.2714 88.3371 42.0973 88.3371 43.0899V43.1202C88.3371 44.8174 87.5181 45.8858 86.3222 46.3808L88.6191 50.139H86.2026L84.1877 46.7723H82.5632V50.139H80.4941V39.6172V39.6197ZM84.6548 44.7316C85.6611 44.7316 86.2387 44.1305 86.2387 43.244V43.2137C86.2387 42.2211 85.6205 41.7109 84.6142 41.7109H82.5609V44.7316H84.6548Z" fill="#C4AC8B"/>
<path d="M100.914 39.6197H102.983V50.1415H100.914V39.6197Z" fill="#C4AC8B"/>
<path d="M115.953 39.6197H119.62C122.573 39.6197 124.615 41.8902 124.615 44.8503V44.8806C124.615 47.8432 122.573 50.1415 119.62 50.1415H115.953V39.6197ZM119.62 48.0528C121.312 48.0528 122.454 46.7748 122.454 44.9109V44.8806C122.454 43.0167 121.312 41.7084 119.62 41.7084H118.022V48.0503H119.62V48.0528Z" fill="#C4AC8B"/>
<path d="M137.074 39.6197H144.164V41.6781H139.127V43.8148H143.559V45.8732H139.127V48.0831H144.231V50.144H137.074V39.6222V39.6197Z" fill="#C4AC8B"/>
<path d="M23.584 62.4819H24.4888V66.1693H26.542V67.0911H23.584V62.4819Z" fill="white"/>
<path d="M41.7503 65.116V62.4818H42.6551V65.0882C42.6551 65.8383 42.9913 66.2273 43.5441 66.2273C44.0969 66.2273 44.4308 65.851 44.4308 65.121V62.4792H45.3356V65.0806C45.3356 66.4773 44.6361 67.1618 43.5305 67.1618C42.4249 67.1618 41.748 66.4697 41.748 65.1135L41.7503 65.116Z" fill="white"/>
<path d="M62.0346 64.7472L60.6583 62.4818H61.7165L62.5807 63.9769L63.4516 62.4818H64.4805L63.1041 64.7321L64.5391 67.0885H63.4809L62.5581 65.51L61.6285 67.0885H60.5996L62.0346 64.7447V64.7472Z" fill="white"/>
<path d="M79.803 65.116V62.4818H80.7078V65.0882C80.7078 65.8383 81.044 66.2273 81.5968 66.2273C82.1496 66.2273 82.4835 65.851 82.4835 65.121V62.4792H83.3883V65.0806C83.3883 66.4773 82.6889 67.1618 81.5833 67.1618C80.4777 67.1618 79.8008 66.4697 79.8008 65.1135L79.803 65.116Z" fill="white"/>
<path d="M99.0215 62.4818H100.903C101.427 62.4818 101.833 62.6459 102.104 62.949C102.334 63.2066 102.456 63.5678 102.456 64.0022V64.0148C102.456 64.7599 102.097 65.2246 101.573 65.4443L102.58 67.091H101.521L100.639 65.6161H99.9285V67.091H99.0237V62.4818H99.0215ZM100.845 64.7195C101.285 64.7195 101.54 64.4543 101.54 64.0679V64.0552C101.54 63.6208 101.269 63.396 100.829 63.396H99.9285V64.7195H100.847H100.845Z" fill="white"/>
<path d="M118.996 65.2726L117.414 62.4818H118.472L119.454 64.3305L120.453 62.4818H121.482L119.901 65.2549V67.091H118.996V65.2751V65.2726Z" fill="white"/>
</svg>
